<svg xmlns="http://www.w3.org/2000/svg" version="1.1" xmlns:xlink="http://www.w3.org/1999/xlink" xmlns:svgjs="http://svgjs.dev/svgjs" width="2000" height="1500" viewBox="0 0 2000 1500"><rect width="2000" height="1500" fill="#ffffff"></rect><g transform="matrix(0.3137747097583935,0,0,0.3137747097583935,687.1570155308874,250.40485829959516)"><svg viewBox="0 0 155 247" data-background-color="#ffffff" preserveAspectRatio="xMidYMid meet" height="3187" width="2000" xmlns="http://www.w3.org/2000/svg" xmlns:xlink="http://www.w3.org/1999/xlink"><g id="tight-bounds" transform="matrix(1,0,0,1,-0.23012915851271032,-0.09999999999999432)"><svg viewBox="0 0 155.46025831702542 247.2" height="247.2" width="155.46025831702542"><g><svg></svg></g><g><svg viewBox="0 0 155.46025831702542 247.2" height="247.2" width="155.46025831702542"><g transform="matrix(1,0,0,1,0,47.215199999999996)"><svg viewBox="0 0 155.46025831702542 152.7696" height="152.7696" width="155.46025831702542"><g><svg viewBox="0 0 155.46025831702542 152.7696" height="152.7696" width="155.46025831702542"><g><svg viewBox="0 0 155.46025831702542 152.7696" height="152.7696" width="155.46025831702542"><g><svg viewBox="0 0 155.46025831702542 152.7696" height="152.7696" width="155.46025831702542"><g id="textblocktransform"><svg viewBox="0 0 155.46025831702542 152.7696" height="152.7696" width="155.46025831702542" id="textblock"><g><svg viewBox="0 0 155.46025831702542 152.7696" height="152.7696" width="155.46025831702542"><g transform="matrix(1,0,0,1,0,0)"><svg width="155.46025831702542" viewBox="1.15 -31.76 38.08 37.42" height="152.7696" data-palette-color="#6936f5"><path d="M2.56-31.35L12.06-31.35 12.06-2.22Q12.06 2.1 10.41 3.88 8.76 5.66 5.44 5.66L5.44 5.66Q3.2 5.66 1.15 4.88L1.15 4.88 1.51 2.42Q3.44 3.1 5.22 3.1L5.22 3.1Q7.28 3.1 8.11 1.87 8.94 0.63 8.94-2.22L8.94-2.22 8.94-28.91 2.56-28.91 2.56-31.35ZM39.23-16.24L39.23-2.25Q38.33-1.76 37.73-1.48 37.13-1.2 35.87-0.72 34.62-0.24 33.12 0 31.61 0.24 29.95 0.24L29.95 0.24Q23.63 0.24 21.01-3.58 18.38-7.4 18.38-15.87L18.38-15.87Q18.38-24.29 21.36-28.03 24.34-31.76 30.32-31.76L30.32-31.76Q34.64-31.76 38.38-29.93L38.38-29.93 38.38-24.02 35.72-24.02 35.72-28.25Q33.62-29.17 30.59-29.17L30.59-29.17Q28.83-29.17 27.52-28.86 26.22-28.54 25.02-27.69 23.83-26.83 23.08-25.39 22.34-23.95 21.88-21.61 21.43-19.26 21.43-16.09L21.43-16.09Q21.43-8.67 23.34-5.51 25.24-2.34 30.1-2.34L30.1-2.34Q33.91-2.34 36.4-3.54L36.4-3.54 36.4-13.84 30.64-13.84 30.64-16.24 39.23-16.24Z" opacity="1" transform="matrix(1,0,0,1,0,0)" fill="#6936f5" class="wordmark-text-0" data-fill-palette-color="primary" id="text-0"></path></svg></g></svg></g></svg></g></svg></g><g></g></svg></g></svg></g></svg></g><path d="M0 41.215L0 1 155.46 1 155.46 41.215 141.683 41.215 141.683 14.777 13.777 14.777 13.777 41.215 0 41.215M0 205.985L0 246.2 155.46 246.2 155.46 205.985 141.683 205.985 141.683 232.423 13.777 232.423 13.777 205.985 0 205.985" fill="#6936f5" stroke="transparent" data-fill-palette-color="tertiary"></path></svg></g><defs></defs></svg><rect width="155.46025831702542" height="247.2" fill="none" stroke="none" visibility="hidden"></rect></g></svg></g></svg>